<svg width="820" height="520" viewBox="0 0 820 520" xmlns="http://www.w3.org/2000/svg">
  <rect width="820" height="520" fill="#0f172a" />
  <rect x="20" y="20" width="780" height="80" rx="10" fill="#1e293b" stroke="#334155" stroke-width="2"/>
  <text x="40" y="60" fill="#e2e8f0" font-family="Arial" font-size="24">Retail Back-Office AI Automation</text>
  <text x="40" y="80" fill="#cbd5e1" font-family="Arial" font-size="14">Upload ➜ Extract ➜ Validate ➜ AI ➜ Report</text>

  <rect x="20" y="120" width="360" height="360" rx="12" fill="#1e293b" stroke="#334155" stroke-width="2"/>
  <text x="40" y="150" fill="#38bdf8" font-family="Arial" font-size="16">Upload + Controls</text>
  <rect x="40" y="170" width="320" height="60" rx="8" fill="#0ea5e9" opacity="0.35"/>
  <text x="50" y="200" fill="#e0f2fe" font-family="Arial" font-size="13">File: sample_invoice.txt</text>
  <rect x="40" y="240" width="140" height="36" rx="6" fill="#22c55e"/>
  <text x="55" y="263" fill="#ecfeff" font-family="Arial" font-size="13">Process Document</text>
  <text x="40" y="300" fill="#cbd5e1" font-family="Arial" font-size="13">Validation: 1 error • 2 warnings</text>
  <text x="40" y="325" fill="#94a3b8" font-family="Arial" font-size="12">Recommended action: request correction</text>

  <rect x="400" y="120" width="400" height="170" rx="12" fill="#1e293b" stroke="#334155" stroke-width="2"/>
  <text x="420" y="150" fill="#38bdf8" font-family="Arial" font-size="16">Extracted JSON</text>
  <rect x="420" y="160" width="360" height="110" rx="8" fill="#0b1221"/>
  <text x="435" y="190" fill="#cbd5e1" font-family="Courier New" font-size="12">
    {"}document_id{"}: {"}INV-2024-0512{"},
  </text>
  <text x="435" y="206" fill="#cbd5e1" font-family="Courier New" font-size="12">
    {"}document_date{"}: {"}2024-05-12{"},
  </text>
  <text x="435" y="222" fill="#cbd5e1" font-family="Courier New" font-size="12">
    {"}items{"}: [{"}SKU-100{"}, {"}SKU-200{"}, {"}SKU-500{"}]
  </text>

  <rect x="400" y="310" width="400" height="170" rx="12" fill="#1e293b" stroke="#334155" stroke-width="2"/>
  <text x="420" y="340" fill="#38bdf8" font-family="Arial" font-size="16">AI Suggestions + Report</text>
  <text x="420" y="365" fill="#cbd5e1" font-family="Arial" font-size="12">- Did you mean SKU-400 instead of SKU-500?</text>
  <text x="420" y="385" fill="#cbd5e1" font-family="Arial" font-size="12">- Quantity 150 exceeds max 120</text>
  <text x="420" y="405" fill="#cbd5e1" font-family="Arial" font-size="12">- Ask supplier to confirm pallet counts</text>
  <text x="420" y="435" fill="#a5b4fc" font-family="Arial" font-size="12">Download JSON / PDF</text>
</svg>
